<svg xmlns="http://www.w3.org/2000/svg" viewBox="0 0 266.071 86.955">
  <defs>
    <style>
      .cls-1, .cls-3, .cls-4, .cls-5 {
        fill: #fff;
      }

      .cls-1 {
        font-size: 53px;
      }

      .cls-1, .cls-4, .cls-5 {
        font-family: Ikaros-Regular, Ikaros Sans;
      }

      .cls-2 {
        font-family: SegoeUI, Segoe UI;
      }

      .cls-4 {
        font-size: 16px;
      }

      .cls-4, .cls-5 {
        letter-spacing: 0.2em;
      }

      .cls-5 {
        font-size: 11px;
      }
    </style>
  </defs>
  <g id="Group_40" data-name="Group 40" transform="translate(-19.252)">
    <text id="OASIS_18" data-name="OASIS&apos;18" class="cls-1" transform="translate(86.323 57)"><tspan x="0" y="0">OASIS</tspan><tspan class="cls-2" y="0">&apos;</tspan><tspan y="0">18</tspan></text>
    <g id="Group_25" data-name="Group 25" transform="translate(19.252 15.79)">
      <path id="Path_12" data-name="Path 12" class="cls-3" d="M8.83,137.82a1.786,1.786,0,0,1,.686.194,7.169,7.169,0,0,0,5.459-.231,6.74,6.74,0,0,0,3.316-3.753,9.154,9.154,0,0,0,.6-3.127,11.908,11.908,0,0,0-.524-3.783,21.225,21.225,0,0,0-1.172-2.947,12.113,12.113,0,0,0-1.473-2.3,13.5,13.5,0,0,0-1.041-1.231,9.75,9.75,0,0,0-2.406-1.828,6.85,6.85,0,0,0-3.94-.724A6.576,6.576,0,0,0,3.27,121.71a13.173,13.173,0,0,0-1.326,2.918c-.139.463-.247.933-.362,1.4-.015.067.015.172-.085.179-.116.015-.123-.09-.162-.172a13.065,13.065,0,0,1-1.118-4.156,8.2,8.2,0,0,1,1.2-5.537A7.256,7.256,0,0,1,4.2,113.9a14.775,14.775,0,0,1,3.385-1.276c.733-.172,1.5-.216,2.213-.455a14.2,14.2,0,0,0,3.1-1.343,19.278,19.278,0,0,0,1.673-.963,29.2,29.2,0,0,0,3.023-2.619,34.423,34.423,0,0,0,2.614-3.156,28.872,28.872,0,0,0,1.82-2.873,35.044,35.044,0,0,0,2.745-6.007,33.685,33.685,0,0,0,1.473-5.462,9.3,9.3,0,0,0,.208-3.029c-.015-.09-.039-.216.1-.246a.121.121,0,0,1,.139.1c.216.761.709,1.4.956,2.149a6.324,6.324,0,0,1,.17,3.082A37.348,37.348,0,0,1,26.2,97.982c-.663,1.9-1.3,3.806-2.051,5.678-.494,1.209-.995,2.418-1.427,3.649a24.268,24.268,0,0,0-.972,3.514,27.884,27.884,0,0,0-.447,4.089,16.209,16.209,0,0,0,1.1,6.842,17.591,17.591,0,0,0,3.015,4.895,22.644,22.644,0,0,0,2.529,2.589c.887.724,1.758,1.477,2.66,2.186,1.164.91,2.383,1.746,3.516,2.694.725.6,1.527,1.119,2.236,1.754.91.813,1.828,1.619,2.683,2.492A14.608,14.608,0,0,1,41.086,141a9.912,9.912,0,0,1,1.55,4.2,2.977,2.977,0,0,1,.085.739c-.015.1.008.209-.1.269a.269.269,0,0,1-.308-.082c-.231-.194-.463-.4-.7-.582a46.887,46.887,0,0,0-3.971-2.9,27.643,27.643,0,0,0-2.444-1.47,29.185,29.185,0,0,0-4.149-1.739,14.372,14.372,0,0,0-5.282-.507,15.451,15.451,0,0,0-4.619,1.179,16.638,16.638,0,0,1-4.519,1.254,7.442,7.442,0,0,1-4.195-.828,16.261,16.261,0,0,1-3.385-2.418A.522.522,0,0,1,8.83,137.82Z" transform="translate(-0.16 -80.014)"/>
      <path id="Path_13" data-name="Path 13" class="cls-3" d="M329.583,0a13.49,13.49,0,0,1,3.185,1.612,13.47,13.47,0,0,1,3.37,3.119A8.6,8.6,0,0,1,337.865,9.1a10.065,10.065,0,0,1-.455,4.134,14.561,14.561,0,0,1-1.774,3.656,24.925,24.925,0,0,1-2.275,2.791,24.339,24.339,0,0,1-3.131,2.724,23.975,23.975,0,0,1-4.133,2.656c-1.373.716-2.768,1.388-4.087,2.186a10.037,10.037,0,0,0-1.712,1.283,20.315,20.315,0,0,0-1.488,1.425,13.811,13.811,0,0,0-2.491,4.074,15.309,15.309,0,0,0-.863,6.835,20.55,20.55,0,0,0,1.249,5.783c.255.686.563,1.358.848,2.03.069.157.216.343.062.47s-.285-.075-.432-.142a9.017,9.017,0,0,1-2.622-1.955,19.945,19.945,0,0,1-1.9-2.328,21.619,21.619,0,0,1-1.951-3.761,16.4,16.4,0,0,1-.9-2.7c-.332-1.246-.532-2.507-.74-3.768a5.554,5.554,0,0,1-.108-1.291c.031-.507-.093-1.022-.054-1.515.046-.657.008-1.321.093-1.97.1-.8.216-1.6.386-2.388.108-.515.308-1.022.455-1.53a8.989,8.989,0,0,1,.887-2,10.191,10.191,0,0,1,2.344-3,14.321,14.321,0,0,1,1.473-1.127,12.224,12.224,0,0,1,2.946-1.224c.91-.276,1.828-.537,2.745-.813A26.769,26.769,0,0,0,326.167,15a18.9,18.9,0,0,0,3.825-2.925,9.7,9.7,0,0,0,2.36-3.85,6.526,6.526,0,0,0-.4-4.858A9.714,9.714,0,0,0,329.83.343c-.085-.082-.154-.164-.232-.254C329.576.075,329.583.045,329.583,0Z" transform="translate(-285.095)"/>
      <path id="Path_14" data-name="Path 14" class="cls-3" d="M487.494,155.323a10.529,10.529,0,0,1,.817-3.47,6.612,6.612,0,0,1,2.159-2.306,18.215,18.215,0,0,1,3.2-1.724,8.843,8.843,0,0,0,2.853-2.007,18.013,18.013,0,0,0,3.5-5.134,28.572,28.572,0,0,0,1.766-5.014c.092-.343.154-.7.216-1.052.039-.254.139-.336.37-.172.085.06.162.119.247.179.694.478.694.5.47,1.328-.339,1.283-.694,2.574-.979,3.873-.231,1.052-.524,2.089-.748,3.141-.578,2.641-1.3,5.246-1.9,7.88-.555,2.455-1.18,4.895-1.781,7.342-.224.91-.37,1.836-.586,2.746-.417,1.731-.871,3.455-1.3,5.179-.293,1.186-.563,2.373-.833,3.559-.039.164-.062.358.216.381a8.859,8.859,0,0,1,2.275.582,9.819,9.819,0,0,1,2.8,1.522,6.611,6.611,0,0,1,2.614,3.9,2.332,2.332,0,0,1-.532,1.776,3.259,3.259,0,0,1-2.421,1.283,5.1,5.1,0,0,1-2.529-.321,4.934,4.934,0,0,1-2.136-1.574,9.9,9.9,0,0,1-2.02-4.671c-.146-.851-.339-1.694-.4-2.559a12.032,12.032,0,0,1,.34-2.567,35.014,35.014,0,0,1,.91-4.268c.285-1.015.625-2.015.925-3.022a26.441,26.441,0,0,0,.864-3.261c.039-.231-.077-.4-.1-.612-.193.008-.277.149-.393.239a5.761,5.761,0,0,1-2.568.769,7.686,7.686,0,0,0-3.979,1.664,12.3,12.3,0,0,0-2.869,4.119,8.622,8.622,0,0,0-.486,1.209c-.077.239-.147.179-.27.045a3.042,3.042,0,0,1-.709-1.843,5.545,5.545,0,0,1,.925-3.328,10.5,10.5,0,0,1,4.65-4.067,9.867,9.867,0,0,1,2.452-.784,6.2,6.2,0,0,0,2.452-1.179,6.618,6.618,0,0,0,2.352-3.186,1.78,1.78,0,0,0,.054-.216c.062-.276-.061-.336-.308-.239-.224.09-.447.179-.671.284-1.288.619-2.6,1.2-3.941,1.694a11.787,11.787,0,0,0-2.776,1.612,9.116,9.116,0,0,0-1.6,1.455C487.879,154.778,487.694,155.054,487.494,155.323Z" transform="translate(-447.138 -124.334)"/>
      <path id="Path_15" data-name="Path 15" class="cls-3" d="M427.586,370.4c-.031.321-.308.485-.494.679a9.347,9.347,0,0,0-1.164,1.686,11.806,11.806,0,0,0-1.519,3.679,13.283,13.283,0,0,0-.247,4.1,14.07,14.07,0,0,0,.779,3.47,15.022,15.022,0,0,0,1.689,3.074.638.638,0,0,0,.162.157c.085.067.154.209.285.134.085-.052.039-.179.031-.276a7.6,7.6,0,0,1,2.344-6.358,9.2,9.2,0,0,1,3.431-2.112c.108-.037.216-.075.324-.1s.224-.052.355-.082a.5.5,0,0,1-.108.455,20.463,20.463,0,0,0-2.228,5.91,16.1,16.1,0,0,0-.424,3.38c-.023.694,0,1.381,0,2.075a19.551,19.551,0,0,0,.686,4.574,28.011,28.011,0,0,0,3.177,7.469c.031.052.085.1.023.209-.47-.276-.964-.53-1.419-.821-1.411-.91-2.815-1.836-4.125-2.88q-1.434-1.142-2.776-2.4a24.048,24.048,0,0,1-3.647-4.268,15.964,15.964,0,0,1-2.228-4.79,14.993,14.993,0,0,1-.316-4.693,13.617,13.617,0,0,1,1.7-5.462,18.868,18.868,0,0,1,2.976-4.223c.463-.485.895-.992,1.365-1.462.37-.373.779-.7,1.18-1.052A.141.141,0,0,1,427.586,370.4Z" transform="translate(-387.739 -342.745)"/>
      <path id="Path_16" data-name="Path 16" class="cls-3" d="M368.886,69.1a6.772,6.772,0,0,1,2.336.94,4.712,4.712,0,0,1,2.066,2.619,15.025,15.025,0,0,1,.378,1.746,9.129,9.129,0,0,1-.093,1.112c.008.276.1.3.309.164a6.285,6.285,0,0,1,1.958-.791A9.129,9.129,0,0,1,377.7,74.7a32.056,32.056,0,0,0,3.285-.187,14.174,14.174,0,0,0,2.475-.582,5.172,5.172,0,0,0,1.3-.485c.092.112.038.194-.031.269a12.592,12.592,0,0,1-2.506,2.052,16.834,16.834,0,0,1-3.963,1.694c-1,.284-2.028.433-3.038.694a21.828,21.828,0,0,0-3.37,1.007A7.157,7.157,0,0,0,369.21,80.9a.908.908,0,0,1-.432.343c-.023-.321.177-.575.239-.851.216-.933.54-1.851.7-2.791a14.577,14.577,0,0,0,.355-2.888c-.008-.239.177-.418.154-.642-.177-1.492-.193-3.022-1.087-4.35-.077-.112-.131-.239-.27-.3C368.994,69.324,368.932,69.212,368.886,69.1Z" transform="translate(-340.352 -63.944)"/>
      <path id="Path_17" data-name="Path 17" class="cls-3" d="M90.364,275.464a4.128,4.128,0,0,1,4.557-4.022,4.184,4.184,0,0,1,3.948,4.231,4.282,4.282,0,0,1-4.318,4.007A4.16,4.16,0,0,1,90.364,275.464Z" transform="translate(-83.405 -251.176)"/>
      <path id="Path_18" data-name="Path 18" class="cls-3" d="M367.806,68.507c.046.112.108.224-.023.321-.046-.075-.085-.142-.131-.216-.031-.052-.077-.119-.015-.149C367.675,68.448,367.744,68.493,367.806,68.507Z" transform="translate(-339.271 -63.351)"/>
    </g>
    <text id="_27_Oct_-_31_Oct" data-name="27   Oct - 31   Oct" class="cls-4" transform="translate(91.989 81.955)"><tspan x="0" y="0" xml:space="preserve">27   Oct - 31   Oct</tspan></text>
    <text id="st" class="cls-5" transform="translate(123.165 72.789)"><tspan x="0" y="0">st</tspan></text>
    <text id="st-2" data-name="st" class="cls-5" transform="translate(234.564 72.789)"><tspan x="0" y="0">st</tspan></text>
  </g>
</svg>
