<svg xmlns="http://www.w3.org/2000/svg" viewBox="0 0 52.386 61.846">
  <defs>
    <style>
      .cls-1 {
        fill: #fff;
      }
    </style>
  </defs>
  <g id="Group_4" data-name="Group 4" transform="translate(0)">
    <path id="Path_12" data-name="Path 12" class="cls-1" d="M8.258,134.43a1.667,1.667,0,0,1,.641.181A6.7,6.7,0,0,0,14,134.4a6.3,6.3,0,0,0,3.1-3.506,8.55,8.55,0,0,0,.562-2.92,11.122,11.122,0,0,0-.49-3.533,19.826,19.826,0,0,0-1.095-2.753,11.314,11.314,0,0,0-1.376-2.147,12.616,12.616,0,0,0-.972-1.15,9.109,9.109,0,0,0-2.247-1.707A6.4,6.4,0,0,0,7.8,116a6.142,6.142,0,0,0-4.732,3.38,12.3,12.3,0,0,0-1.239,2.725c-.13.432-.23.871-.339,1.31-.014.063.014.16-.079.167s-.115-.084-.151-.16a12.2,12.2,0,0,1-1.044-3.882,7.655,7.655,0,0,1,1.124-5.171,6.777,6.777,0,0,1,2.6-2.286A13.8,13.8,0,0,1,7.1,110.9c.684-.16,1.4-.2,2.067-.425a13.263,13.263,0,0,0,2.9-1.254,17.994,17.994,0,0,0,1.563-.9,27.265,27.265,0,0,0,2.823-2.446,32.147,32.147,0,0,0,2.442-2.948,26.961,26.961,0,0,0,1.7-2.683,32.73,32.73,0,0,0,2.564-5.61,31.462,31.462,0,0,0,1.376-5.1,8.684,8.684,0,0,0,.194-2.83c-.014-.084-.036-.2.094-.23a.113.113,0,0,1,.13.091c.2.711.663,1.31.893,2.007A5.907,5.907,0,0,1,26,91.444a34.882,34.882,0,0,1-1.52,5.778c-.619,1.77-1.21,3.554-1.916,5.3-.461,1.129-.929,2.258-1.332,3.408a22.666,22.666,0,0,0-.907,3.283,26.044,26.044,0,0,0-.418,3.819,15.139,15.139,0,0,0,1.03,6.391A16.43,16.43,0,0,0,23.75,124a21.152,21.152,0,0,0,2.362,2.418c.828.676,1.642,1.38,2.485,2.042,1.088.85,2.225,1.631,3.284,2.516.677.565,1.426,1.045,2.089,1.638.85.76,1.707,1.512,2.506,2.328a13.643,13.643,0,0,1,1.909,2.46,9.258,9.258,0,0,1,1.448,3.924,2.781,2.781,0,0,1,.079.69c-.014.091.007.2-.094.251a.251.251,0,0,1-.288-.077c-.216-.181-.432-.369-.655-.544a43.792,43.792,0,0,0-3.709-2.711,25.821,25.821,0,0,0-2.283-1.373,27.262,27.262,0,0,0-3.875-1.624,13.423,13.423,0,0,0-4.933-.474,14.431,14.431,0,0,0-4.314,1.1,15.539,15.539,0,0,1-4.22,1.171,6.95,6.95,0,0,1-3.918-.774A15.187,15.187,0,0,1,8.459,134.7.487.487,0,0,1,8.258,134.43Z" transform="translate(-0.16 -80.439)"/>
    <path id="Path_13" data-name="Path 13" class="cls-1" d="M328.218,0a12.6,12.6,0,0,1,2.975,1.505,12.583,12.583,0,0,1,3.147,2.913A8.032,8.032,0,0,1,335.954,8.5a9.4,9.4,0,0,1-.425,3.861,13.591,13.591,0,0,1-1.657,3.415,23.282,23.282,0,0,1-2.125,2.607,22.728,22.728,0,0,1-2.924,2.544,22.392,22.392,0,0,1-3.86,2.481c-1.282.669-2.586,1.3-3.817,2.042a9.38,9.38,0,0,0-1.6,1.2,18.972,18.972,0,0,0-1.39,1.331,12.9,12.9,0,0,0-2.326,3.805,14.3,14.3,0,0,0-.807,6.384,19.192,19.192,0,0,0,1.167,5.4c.238.641.526,1.268.792,1.9.065.146.2.321.058.439s-.266-.07-.4-.132a8.422,8.422,0,0,1-2.449-1.826,18.63,18.63,0,0,1-1.772-2.174,20.2,20.2,0,0,1-1.822-3.513,15.309,15.309,0,0,1-.843-2.523c-.31-1.164-.5-2.342-.691-3.519a5.186,5.186,0,0,1-.1-1.206c.029-.474-.086-.955-.05-1.415.043-.613.007-1.234.086-1.84.094-.746.2-1.5.36-2.23.1-.481.288-.955.425-1.429a8.387,8.387,0,0,1,.828-1.868,9.516,9.516,0,0,1,2.189-2.8,13.368,13.368,0,0,1,1.376-1.052,11.416,11.416,0,0,1,2.751-1.143c.85-.258,1.707-.5,2.564-.76a25,25,0,0,0,5.538-2.467,17.647,17.647,0,0,0,3.572-2.732,9.058,9.058,0,0,0,2.2-3.6,6.1,6.1,0,0,0-.374-4.537A9.076,9.076,0,0,0,328.449.321c-.079-.077-.144-.153-.216-.237C328.211.07,328.218.042,328.218,0Z" transform="translate(-286.666)"/>
    <path id="Path_14" data-name="Path 14" class="cls-1" d="M487.3,153.939a9.838,9.838,0,0,1,.763-3.241,6.176,6.176,0,0,1,2.017-2.153,17.013,17.013,0,0,1,2.989-1.61,8.259,8.259,0,0,0,2.665-1.875,16.829,16.829,0,0,0,3.27-4.795,26.689,26.689,0,0,0,1.649-4.683c.086-.321.144-.655.2-.983.036-.237.13-.314.346-.16.079.056.151.112.23.167.648.446.648.467.439,1.241-.317,1.2-.648,2.4-.915,3.617-.216.983-.49,1.951-.7,2.934-.54,2.467-1.217,4.9-1.772,7.36-.519,2.293-1.1,4.572-1.664,6.858-.209.85-.346,1.714-.547,2.565-.389,1.617-.814,3.227-1.21,4.837-.274,1.108-.526,2.216-.778,3.324-.036.153-.058.335.2.355a8.268,8.268,0,0,1,2.125.544,9.171,9.171,0,0,1,2.614,1.422,6.174,6.174,0,0,1,2.442,3.645,2.178,2.178,0,0,1-.5,1.659,3.044,3.044,0,0,1-2.262,1.2,4.764,4.764,0,0,1-2.362-.3,4.608,4.608,0,0,1-2-1.47,9.252,9.252,0,0,1-1.887-4.363c-.137-.795-.317-1.582-.375-2.39a11.228,11.228,0,0,1,.317-2.4,32.741,32.741,0,0,1,.85-3.986c.266-.948.583-1.882.864-2.823a24.662,24.662,0,0,0,.807-3.046c.036-.216-.072-.376-.094-.571-.18.007-.259.139-.367.223a5.381,5.381,0,0,1-2.4.718,7.179,7.179,0,0,0-3.716,1.554,11.491,11.491,0,0,0-2.679,3.847,8.064,8.064,0,0,0-.454,1.129c-.072.223-.137.167-.252.042a2.84,2.84,0,0,1-.663-1.721,5.179,5.179,0,0,1,.864-3.108,9.812,9.812,0,0,1,4.343-3.8,9.215,9.215,0,0,1,2.29-.732,5.79,5.79,0,0,0,2.29-1.1,6.181,6.181,0,0,0,2.2-2.976,1.662,1.662,0,0,0,.05-.2c.058-.258-.058-.314-.288-.223-.209.084-.418.167-.626.265-1.2.578-2.427,1.122-3.68,1.582a11,11,0,0,0-2.593,1.505,8.509,8.509,0,0,0-1.491,1.359C487.655,153.431,487.482,153.688,487.3,153.939Z" transform="translate(-449.603 -124.996)"/>
    <path id="Path_15" data-name="Path 15" class="cls-1" d="M427.093,370.4c-.029.3-.288.453-.461.634a8.725,8.725,0,0,0-1.088,1.575,11.028,11.028,0,0,0-1.419,3.436,12.408,12.408,0,0,0-.23,3.826,13.149,13.149,0,0,0,.727,3.241,14.043,14.043,0,0,0,1.577,2.871.593.593,0,0,0,.151.146c.079.063.144.2.266.125.079-.049.036-.167.029-.258a7.1,7.1,0,0,1,2.19-5.938,8.591,8.591,0,0,1,3.2-1.972c.1-.035.2-.07.3-.1s.209-.049.331-.077a.473.473,0,0,1-.1.425,19.115,19.115,0,0,0-2.081,5.52,15.045,15.045,0,0,0-.4,3.157c-.022.648,0,1.289,0,1.937a18.254,18.254,0,0,0,.641,4.272A26.165,26.165,0,0,0,433.7,400.2c.029.049.079.091.022.2-.439-.258-.9-.495-1.325-.767-1.318-.85-2.629-1.714-3.853-2.69q-1.34-1.066-2.593-2.244a22.462,22.462,0,0,1-3.407-3.986,14.909,14.909,0,0,1-2.081-4.474,14.005,14.005,0,0,1-.3-4.384,12.722,12.722,0,0,1,1.584-5.1,17.621,17.621,0,0,1,2.78-3.945c.432-.453.835-.927,1.275-1.366.346-.348.727-.655,1.1-.983A.132.132,0,0,1,427.093,370.4Z" transform="translate(-389.877 -344.569)"/>
    <path id="Path_16" data-name="Path 16" class="cls-1" d="M368.879,69.1a6.326,6.326,0,0,1,2.182.878,4.4,4.4,0,0,1,1.93,2.446,14.009,14.009,0,0,1,.353,1.631,8.526,8.526,0,0,1-.086,1.038c.007.258.094.279.288.153a5.873,5.873,0,0,1,1.829-.739,8.53,8.53,0,0,1,1.736-.181,29.948,29.948,0,0,0,3.068-.174,13.24,13.24,0,0,0,2.312-.544,4.826,4.826,0,0,0,1.217-.453c.086.1.036.181-.029.251a11.76,11.76,0,0,1-2.341,1.917,15.724,15.724,0,0,1-3.7,1.582c-.936.265-1.894.4-2.838.648a20.384,20.384,0,0,0-3.147.941,6.685,6.685,0,0,0-2.47,1.624.848.848,0,0,1-.4.321c-.022-.3.166-.537.223-.795.2-.871.5-1.728.655-2.606a13.618,13.618,0,0,0,.331-2.7c-.007-.223.166-.39.144-.6a8.64,8.64,0,0,0-1.015-4.063c-.072-.1-.122-.223-.252-.279C368.979,69.309,368.922,69.2,368.879,69.1Z" transform="translate(-342.228 -64.284)"/>
    <path id="Path_17" data-name="Path 17" class="cls-1" d="M90.364,275.2a3.856,3.856,0,0,1,4.257-3.756,3.908,3.908,0,0,1,3.688,3.952,4,4,0,0,1-4.033,3.742A3.885,3.885,0,0,1,90.364,275.2Z" transform="translate(-83.864 -252.513)"/>
    <path id="Path_18" data-name="Path 18" class="cls-1" d="M367.793,68.5c.043.1.1.209-.022.3-.043-.07-.079-.132-.122-.2-.029-.049-.072-.112-.014-.139C367.67,68.449,367.735,68.49,367.793,68.5Z" transform="translate(-341.142 -63.689)"/>
  </g>
</svg>
